. 
 
http://www.torrenting.com          :     Once & For all ;)


               www . Torrenting . Com 

(((((((((((((= Enjoy No RAR releases =))))))))))))))))))))


...................................NFO:....................................

.                                                                                                     
       
     
     
       
       
     
     
                                         
                                         
                EXVID                    
                                         
         
                                         
         Filled the Archives             
                                         
         
                                         
                With:                    
                                         
         
                                         
                                    
     E240                           
                                    
     SP               (C) 2009      
                                         
     
     
     
                                                                                  
                                                                                   
                Hot.Pursuit.1987.iNTERNAL.DVDRip.XviD-EXViDiNT                      
                                                                                   
                                                                                  
     
                                                                                               
EXViD aims to iNTERNAL those releases which have been lost in the archives.
EXViD aims to PRE non-internal releases which have poor sources and are likely skipped by others. 
http://www.imdb.com/title/tt0093215/
Subtitles: EN
Date: 2012.01

Director: Steven Lisberger

Genres: Comedy

Plot:
Young Danny is following his rich girlfriend's family to the Caribbean. But suddenly he simply
must make a chemistry test and cannot go with them. After they have left, he gets a leave from
his professor and takes a plane to find them. But he is not quite sure where they are, and meets
smugglers, crazy captains and murderers.

Cast:
John Cusack	...	Dan Bartlett
Robert Loggia	...	'Mac' MacClaren
Jerry Stiller	...	Victor Honeywell
Wendy Gazelle	...	Lori Cronenberg
Monte Markham	...	Bill Cronenberg
Shelley Fabares	...	Buffy Cronenberg
Ben Stiller	...	Chris Honeywell
Dah-ve Chodan	...	Ginger Cronenberg
Keith David	...	Alphonso
Paul Bates	...	Cleon
Ursaline Bryant	...	Roxanne
Terence Cooper	...	Captain Andrew (as Terrence Cooper)
Miguel ngel Fuentes	...	Policeman #1 (as Miguel Angel Fuentes)
Carlos Horcasitas	...	Policeman #2
Martin LaSalle	...	Prisoner (as Martin Lasalle)

Stats:
Format                                   : AVI
Format/Info                              : Audio Video Interleave
File size                                : 702 MiB
Duration                                 : 1h 32mn
Overall bit rate mode                    : Variable
Overall bit rate                         : 1 061 Kbps

Video
ID                                       : 0
Format                                   : MPEG-4 Visual
Format profile                           : Advanced Simple@L5
Format settings, BVOP                    : 2
Format settings, QPel                    : No
Format settings, GMC                     : No warppoints
Format settings, Matrix                  : Default (H.263)
Codec ID                                 : XVID
Codec ID/Hint                            : XviD
Duration                                 : 1h 32mn
Bit rate                                 : 919 Kbps
Width                                    : 608 pixels
Height                                   : 336 pixels
Display aspect ratio                     : 16:9
Frame rate                               : 23.976 fps
Color space                              : YUV
Chroma subsampling                       : 4:2:0
Bit depth                                : 8 bits
Scan type                                : Progressive
Compression mode                         : Lossy
Bits/(Pixel*Frame)                       : 0.188
Stream size                              : 608 MiB (87%)
Writing library                          : XviD 64

Audio
ID                                       : 1
Format                                   : MPEG Audio
Format version                           : Version 1
Format profile                           : Layer 3
Mode                                     : Joint stereo
Mode extension                           : MS Stereo
Codec ID                                 : 55
Codec ID/Hint                            : MP3
Duration                                 : 1h 32mn
Bit rate mode                            : Variable
Bit rate                                 : 128 Kbps
Channel(s)                               : 2 channels
Sampling rate                            : 48.0 KHz
Compression mode                         : Lossy
Stream size                              : 85.7 MiB (12%)
Alignment                                : Aligned on interleaves
Interleave, duration                     : 24 ms (0.58 video frame)
Interleave, preload duration             : 124 ms
Writing library                          : LAME3.98.4



Release notes:
Enjoy!

Looking for:
75TB+ Archives
DUTCH/FLEMiSH Archives
                                                                                                    
Greets: CRBS EPiSODE FiCO FLS iLS KLASSiGER LiPSYNC MADE NODLABS RUNNER SPRiNTER      
   

                                                                    ASCII DONE BY XX^NFO 2oo9     
 

RLS-Crc: 415243414445:42EECD90	  	 		
RLS-Crc: 415243414445:42EECD90